<svg  viewBox="0 0 28 28" fill="none" xmlns="http://www.w3.org/2000/svg">
<path fill-rule="evenodd" clip-rule="evenodd" d="M10.4037 5.43426C9.55171 6.08114 9.04166 6.99665 9.04166 8.16667H7.29166C7.29166 6.41413 8.08658 4.9963 9.34542 4.04049C10.5843 3.09987 12.2405 2.625 14 2.625C15.7595 2.625 17.4157 3.09987 18.6546 4.04049C19.9134 4.9963 20.7083 6.41413 20.7083 8.16667H18.9583C18.9583 6.99665 18.4483 6.08114 17.5963 5.43426C16.7243 4.77218 15.4639 4.375 14 4.375C12.5361 4.375 11.2757 4.77218 10.4037 5.43426ZM3.79166 9.625H24.2083V25.375H3.79166V9.625ZM5.54166 19.5417V23.625H22.4583V19.5417H5.54166ZM5.54166 17.7917H22.4583V11.375H5.54166V17.7917Z" fill="#0C8BFF"/>
</svg>
