<svg  viewBox="0 0 28 28" fill="none" xmlns="http://www.w3.org/2000/svg">
<path fill-rule="evenodd" clip-rule="evenodd" d="M7.29167 8.31251V3.64584H9.04167V8.31251H7.29167ZM2.625 5.10418H5.83333V6.85418H4.375V9.77084H23.625V6.85418H21.5833V5.10418H25.375V24.3542H2.625V5.10418ZM23.625 11.5208H4.375V22.6042H23.625V11.5208ZM17.5 6.85418H10.5V5.10418H17.5V6.85418ZM14 16.1875C13.8389 16.1875 13.7083 16.3181 13.7083 16.4792C13.7083 16.6403 13.8389 16.7708 14 16.7708C14.1611 16.7708 14.2917 16.6403 14.2917 16.4792C14.2917 16.3181 14.1611 16.1875 14 16.1875ZM11.9583 16.4792C11.9583 15.3516 12.8724 14.4375 14 14.4375C15.1276 14.4375 16.0417 15.3516 16.0417 16.4792C16.0417 17.6068 15.1276 18.5208 14 18.5208C12.8724 18.5208 11.9583 17.6068 11.9583 16.4792ZM19.5417 16.4792C19.5417 16.3181 19.6723 16.1875 19.8333 16.1875C19.9944 16.1875 20.125 16.3181 20.125 16.4792C20.125 16.6403 19.9944 16.7708 19.8333 16.7708C19.6723 16.7708 19.5417 16.6403 19.5417 16.4792ZM19.8333 14.4375C18.7058 14.4375 17.7917 15.3516 17.7917 16.4792C17.7917 17.6068 18.7058 18.5208 19.8333 18.5208C20.9609 18.5208 21.875 17.6068 21.875 16.4792C21.875 15.3516 20.9609 14.4375 19.8333 14.4375ZM8.16667 16.1875C8.00558 16.1875 7.875 16.3181 7.875 16.4792C7.875 16.6403 8.00558 16.7708 8.16667 16.7708C8.32775 16.7708 8.45833 16.6403 8.45833 16.4792C8.45833 16.3181 8.32775 16.1875 8.16667 16.1875ZM6.125 16.4792C6.125 15.3516 7.03909 14.4375 8.16667 14.4375C9.29425 14.4375 10.2083 15.3516 10.2083 16.4792C10.2083 17.6068 9.29425 18.5208 8.16667 18.5208C7.03909 18.5208 6.125 17.6068 6.125 16.4792ZM18.9583 3.64584V8.31251H20.7083V3.64584H18.9583Z" fill="#0C8BFF"/>
</svg>
