<svg viewBox="0 0 28 28" fill="none" xmlns="http://www.w3.org/2000/svg">
<path fill-rule="evenodd" clip-rule="evenodd" d="M3.20833 3.20831H17.7917V5.54165H24.7917V23.0416H26.25V24.7916H13.125H7.875H1.75V23.0416H3.20833V3.20831ZM4.95833 23.0416H7.875V17.2083H13.125V23.0416H16.0417L16.0417 5.54165L16.0417 4.95831H4.95833V23.0416ZM17.7917 23.0416H23.0417V7.29165H17.7917L17.7917 23.0416ZM11.375 23.0416V18.9583H9.625V23.0416H11.375ZM9.91667 13.4166H7.58333V15.75H9.91667V13.4166ZM7.58333 9.91665H9.91667V12.25H7.58333V9.91665ZM9.91667 6.41665H7.58333V8.74998H9.91667V6.41665ZM11.0833 13.4166H13.4167V15.75H11.0833V13.4166ZM13.4167 9.91665H11.0833V12.25H13.4167V9.91665ZM11.0833 6.41665H13.4167V8.74998H11.0833V6.41665ZM21.5833 9.91665H19.25V12.25H21.5833V9.91665ZM19.25 13.4166H21.5833V15.75H19.25V13.4166ZM21.5833 16.9166H19.25V19.25H21.5833V16.9166Z" fill="#0C8BFF"/>
</svg>
