<svg  viewBox="0 0 28 28" fill="none" xmlns="http://www.w3.org/2000/svg">
<path fill-rule="evenodd" clip-rule="evenodd" d="M7.30691 10.9005C7.30691 7.20495 10.3045 4.20736 14 4.20736C17.6955 4.20736 20.6931 7.20495 20.6931 10.9005C20.6931 12.1621 20.3437 13.3442 19.7387 14.3425L21.2613 15.2653C22.0319 13.9938 22.4736 12.4933 22.4736 10.9005C22.4736 6.22162 18.6788 2.42688 14 2.42688C9.32117 2.42688 5.52643 6.22162 5.52643 10.9005C5.52643 12.5047 5.97815 14.0141 6.75687 15.2927L8.27753 14.3666C7.66339 13.3582 7.30691 12.1679 7.30691 10.9005ZM13.9914 6.95866C11.8177 6.95866 10.0496 8.72676 10.0496 10.9004C10.0496 11.2163 10.0906 11.5327 10.1624 11.8437C10.2608 12.2342 10.4144 12.5968 10.6178 12.9335L9.09386 13.8542C8.79983 13.3675 8.57576 12.8383 8.43331 12.2685L8.42975 12.2542L8.42987 12.2542C8.33077 11.8281 8.26916 11.3731 8.26916 10.9004C8.26916 7.74343 10.8344 5.17818 13.9914 5.17818C17.1484 5.17818 19.7137 7.74343 19.7137 10.9004C19.7137 11.3538 19.6632 11.792 19.5611 12.2219C19.4271 12.7978 19.202 13.3372 18.9103 13.83L17.3781 12.9232C17.5846 12.5742 17.7376 12.203 17.8273 11.8169L17.8284 11.812C17.8978 11.5205 17.9332 11.22 17.9332 10.9004C17.9332 8.72676 16.1651 6.95866 13.9914 6.95866ZM13.1019 10.9004C13.1019 10.4044 13.504 10.0023 14 10.0023C14.496 10.0023 14.8981 10.4044 14.8981 10.9004C14.8981 11.3965 14.496 11.7986 14 11.7986C13.504 11.7986 13.1019 11.3965 13.1019 10.9004ZM14 8.22183C12.5206 8.22183 11.3214 9.42108 11.3214 10.9004C11.3214 12.0677 12.068 13.0605 13.1097 13.4275V14.5327H10.4122L9.01803 25.5731H18.9733L17.5792 14.5327H14.8902V13.4276C15.9319 13.0606 16.6786 12.0677 16.6786 10.9004C16.6786 9.42108 15.4793 8.22183 14 8.22183ZM11.982 16.3132L11.0375 23.7926H16.9539L16.0094 16.3132H11.982Z" fill="#0C8BFF"/>
</svg>
