<svg  viewBox="0 0 28 28" fill="none" xmlns="http://www.w3.org/2000/svg">
<path fill-rule="evenodd" clip-rule="evenodd" d="M14.0007 2.04166C9.69345 2.04166 6.13151 5.3843 6.12647 9.5926C6.06433 12.818 7.98188 16.0173 9.76597 18.3108C10.6756 19.4801 11.5869 20.4594 12.2701 21.1462C12.6122 21.4901 12.8986 21.762 13.1007 21.9492C13.2018 22.0428 13.282 22.1152 13.3377 22.165C13.3655 22.1899 13.3872 22.2091 13.4024 22.2225L13.4202 22.2381L13.4275 22.2444L14.0056 22.7451L14.5791 22.2399L14.0007 21.5833C14.5791 22.2399 14.5798 22.2393 14.58 22.2391L14.5816 22.2377L14.5866 22.2333L14.6041 22.2177C14.619 22.2044 14.6404 22.1851 14.6677 22.1603C14.7225 22.1105 14.8013 22.0381 14.9009 21.9445C15.0998 21.7574 15.3817 21.4856 15.719 21.1418C16.3925 20.4553 17.2918 19.4764 18.1932 18.3079C19.9642 16.012 21.875 12.8172 21.875 9.60153C21.875 5.38903 18.3111 2.04166 14.0007 2.04166ZM14.0007 21.5833L13.4275 22.2444C13.4277 22.2445 13.4278 22.2447 14.0007 21.5833ZM14.4697 19.9163C14.2939 20.0956 14.1344 20.2536 13.996 20.3883C13.8544 20.2527 13.691 20.0932 13.5107 19.912C12.8631 19.2609 12.0023 18.3353 11.1472 17.2363C9.4037 14.9949 7.8235 12.2072 7.87628 9.61938L7.87646 9.61046V9.60153C7.87646 6.43045 10.5802 3.79166 14.0007 3.79166C17.4212 3.79166 20.125 6.43045 20.125 9.60153C20.125 12.2021 18.5361 14.9982 16.8075 17.2391C15.9591 18.339 15.1086 19.2651 14.4697 19.9163ZM14 7.29166C12.5503 7.29166 11.375 8.46691 11.375 9.91666C11.375 11.3664 12.5503 12.5417 14 12.5417C15.4497 12.5417 16.625 11.3664 16.625 9.91666C16.625 8.46691 15.4497 7.29166 14 7.29166ZM9.625 9.91666C9.625 7.50041 11.5838 5.54166 14 5.54166C16.4162 5.54166 18.375 7.50041 18.375 9.91666C18.375 12.3329 16.4162 14.2917 14 14.2917C11.5838 14.2917 9.625 12.3329 9.625 9.91666ZM7.07778 20.9465C6.78516 21.2426 6.70833 21.4788 6.70833 21.6486C6.70833 21.821 6.7877 22.0625 7.09208 22.3651C7.39976 22.6711 7.88938 22.9868 8.56452 23.2708C9.9112 23.8372 11.8324 24.2084 14 24.2084C16.1676 24.2084 18.0888 23.8372 19.4355 23.2708C20.1106 22.9868 20.6002 22.6711 20.9079 22.3651C21.2123 22.0625 21.2917 21.821 21.2917 21.6486C21.2917 21.4788 21.2148 21.2426 20.9222 20.9465C20.6259 20.6466 20.1534 20.3356 19.4991 20.0536L20.1918 18.4465C20.9737 18.7835 21.6618 19.2051 22.1671 19.7165C22.676 20.2316 23.0417 20.8853 23.0417 21.6486C23.0417 22.4247 22.664 23.0869 22.1419 23.606C21.623 24.1219 20.9167 24.5463 20.1139 24.8839C18.5049 25.5607 16.3427 25.9584 14 25.9584C11.6573 25.9584 9.49514 25.5607 7.88607 24.8839C7.08333 24.5463 6.37697 24.1219 5.85814 23.606C5.33601 23.0869 4.95833 22.4247 4.95833 21.6486C4.95833 20.8853 5.324 20.2316 5.83294 19.7165C6.33822 19.2051 7.02629 18.7835 7.80825 18.4465L8.50091 20.0536C7.8466 20.3356 7.37405 20.6466 7.07778 20.9465Z" fill="#0C8BFF"/>
</svg>
