<svg viewBox="0 0 28 28" fill="none" xmlns="http://www.w3.org/2000/svg">
<path fill-rule="evenodd" clip-rule="evenodd" d="M11.7447 5.36046C8.21878 5.36046 5.36045 8.21879 5.36045 11.7447C5.36045 15.2706 8.21878 18.129 11.7447 18.129C15.2706 18.129 18.129 15.2706 18.129 11.7447C18.129 8.21879 15.2706 5.36046 11.7447 5.36046ZM3.61045 11.7447C3.61045 7.25229 7.25228 3.61046 11.7447 3.61046C16.2371 3.61046 19.879 7.25229 19.879 11.7447C19.879 13.6757 19.2061 15.4495 18.0821 16.8446L24.3895 23.1521L23.1521 24.3896L16.8447 18.082C15.4496 19.2061 13.6757 19.879 11.7447 19.879C7.25228 19.879 3.61045 16.2371 3.61045 11.7447Z" fill="#0C8BFF"/>
</svg>
