<svg viewBox="0 0 28 28" fill="none" xmlns="http://www.w3.org/2000/svg">
<path fill-rule="evenodd" clip-rule="evenodd" d="M15.4583 12.5417H25.9583V11.6667C25.9583 10.4027 25.7094 9.15109 25.2257 7.98333C24.742 6.81557 24.033 5.75452 23.1392 4.86075C22.2455 3.96699 21.1844 3.25802 20.0167 2.77432C18.8489 2.29061 17.5973 2.04166 16.3333 2.04166H15.4583L15.4583 12.5417ZM23.6089 8.65302C23.8925 9.33784 24.0775 10.0579 24.1596 10.7917H17.2083L17.2083 3.84042C17.9421 3.92246 18.6622 4.10745 19.347 4.39111C20.3024 4.78686 21.1705 5.36693 21.9018 6.09819C22.6331 6.82945 23.2131 7.69759 23.6089 8.65302ZM8.06931 6.58043C9.40854 5.68558 10.9468 5.14375 12.5417 4.99817V15.4583H23.0018C22.8562 17.0532 22.3144 18.5915 21.4196 19.9307C20.362 21.5135 18.8587 22.7472 17.1 23.4757C15.3413 24.2042 13.406 24.3948 11.5389 24.0234C9.67186 23.652 7.95685 22.7353 6.61077 21.3892C5.26469 20.0431 4.34799 18.3281 3.97661 16.4611C3.60523 14.594 3.79584 12.6587 4.52433 10.9C5.25282 9.14126 6.48648 7.63804 8.06931 6.58043ZM13.4167 3.20832C11.1669 3.20832 8.96767 3.87546 7.09706 5.12536C5.22645 6.37526 3.76849 8.15179 2.90754 10.2303C2.04659 12.3088 1.82133 14.5959 2.26024 16.8025C2.69914 19.009 3.78251 21.0358 5.37333 22.6267C6.96415 24.2175 8.99098 25.3008 11.1975 25.7398C13.4041 26.1787 15.6912 25.9534 17.7697 25.0925C19.8482 24.2315 21.6247 22.7735 22.8746 20.9029C24.1245 19.0323 24.7917 16.8331 24.7917 14.5833V13.7083H14.2917V3.20832H13.4167Z" fill="#0C8BFF"/>
</svg>
