<svg viewBox="0 0 28 28" fill="none" xmlns="http://www.w3.org/2000/svg">
<path fill-rule="evenodd" clip-rule="evenodd" d="M2.33333 5.56409H17.0513V9.87178H22.4413L25.6667 12.2908V20.282H22.4105C22.2363 21.4998 21.189 22.4359 19.9231 22.4359C18.6572 22.4359 17.6099 21.4998 17.4357 20.282L17.0513 20.282H10.5643C10.3901 21.4998 9.34283 22.4359 8.07692 22.4359C6.81101 22.4359 5.76374 21.4998 5.58955 20.282H2.33333V5.56409ZM21.9855 18.4872H23.8718V13.1882L21.843 11.6667H17.0513L17.0513 18.4872H17.8607C18.3147 17.8362 19.0692 17.4102 19.9231 17.4102C20.777 17.4102 21.5314 17.8362 21.9855 18.4872ZM15.2564 18.4872V9.87178V7.35896H4.1282V18.4872H6.0145C6.46858 17.8362 7.22301 17.4102 8.07692 17.4102C8.93084 17.4102 9.68527 17.8362 10.1393 18.4872H15.2564ZM8.07692 19.2051C7.68041 19.2051 7.35897 19.5265 7.35897 19.9231C7.35897 20.3196 7.68041 20.641 8.07692 20.641C8.47344 20.641 8.79487 20.3196 8.79487 19.9231C8.79487 19.5265 8.47344 19.2051 8.07692 19.2051ZM19.2051 19.9231C19.2051 19.5265 19.5266 19.2051 19.9231 19.2051C20.3196 19.2051 20.641 19.5265 20.641 19.9231C20.641 20.3196 20.3196 20.641 19.9231 20.641C19.5266 20.641 19.2051 20.3196 19.2051 19.9231Z" fill="#0C8BFF"/>
</svg>
