<svg viewBox="0 0 28 28" fill="none" xmlns="http://www.w3.org/2000/svg">
<path fill-rule="evenodd" clip-rule="evenodd" d="M4.74328 16.6165C5.3679 18.8277 6.76296 20.7425 8.67629 22.0148C10.5896 23.2871 12.895 23.8329 15.1757 23.5536C17.4564 23.2744 19.5619 22.1884 21.1118 20.492C22.6616 18.7956 23.5534 16.6008 23.626 14.3042C23.6986 12.0076 22.9473 9.76082 21.5077 7.96992C20.0682 6.17902 18.0355 4.96219 15.777 4.53937C13.5185 4.11655 11.1832 4.51565 9.19332 5.66451L8.31832 4.14897C10.67 2.79122 13.4299 2.31956 16.099 2.81926C18.7681 3.31895 21.1704 4.75703 22.8717 6.87354C24.573 8.99006 25.461 11.6454 25.3751 14.3595C25.2893 17.0737 24.2353 19.6676 22.4037 21.6724C20.5722 23.6772 18.0838 24.9606 15.3884 25.2907C12.693 25.6207 9.96851 24.9757 7.70729 23.472C5.44607 21.9684 3.79737 19.7055 3.05918 17.0922C2.40905 14.7907 2.50294 12.3512 3.31355 10.1184L1.46179 10.855L0.814995 9.22892L5.50681 7.3627L7.37339 12.0554L5.7473 12.7022L4.95784 10.7175C4.27256 12.6062 4.19335 14.6697 4.74328 16.6165ZM12.7875 7.24007H14.5375V13.3651H19.4959V15.1151H12.7875V7.24007Z" fill="#0C8BFF"/>
</svg>
