
<svg width="800" height="600" role="img" viewBox="0 0 800 600" style="pointer-events:all;width:100%;height:100%"><g role="presentation"><path style="fill:#252525;stroke:#252525;padding:8px;stroke-width:0" d="M 58.125, 550 
A 0 0 0 0 1, 58.125, 550 
L 58.125, 253.09376298964787 
A 0 0 0 0 1, 58.125, 253.09376298964787 
L 101.875, 253.09376298964787 
A 0 0 0 0 1, 101.875, 253.09376298964787 
L 101.875, 550 
A 0 0 0 0 1, 101.875, 550 
 z" index="0" role="presentation" shape-rendering="auto"></path><path style="fill:#252525;stroke:#252525;padding:8px;stroke-width:0" d="M 186.125, 550 
A 0 0 0 0 1, 186.125, 550 
L 186.125, 79.89845806694247 
A 0 0 0 0 1, 186.125, 79.89845806694247 
L 229.875, 79.89845806694247 
A 0 0 0 0 1, 229.875, 79.89845806694247 
L 229.875, 550 
A 0 0 0 0 1, 229.875, 550 
 z" index="1" role="presentation" shape-rendering="auto"></path><path style="fill:#252525;stroke:#252525;padding:8px;stroke-width:0" d="M 314.125, 550 
A 0 0 0 0 1, 314.125, 550 
L 314.125, 475.773440747412 
A 0 0 0 0 1, 314.125, 475.773440747412 
L 357.875, 475.773440747412 
A 0 0 0 0 1, 357.875, 475.773440747412 
L 357.875, 550 
A 0 0 0 0 1, 357.875, 550 
 z" index="2" role="presentation" shape-rendering="auto"></path><path style="fill:#252525;stroke:#252525;padding:8px;stroke-width:0" d="M 442.125, 550 
A 0 0 0 0 1, 442.125, 550 
L 442.125, 426.28906791235323 
A 0 0 0 0 1, 442.125, 426.28906791235323 
L 485.875, 426.28906791235323 
A 0 0 0 0 1, 485.875, 426.28906791235323 
L 485.875, 550 
A 0 0 0 0 1, 485.875, 550 
 z" index="3" role="presentation" shape-rendering="auto"></path><path style="fill:#252525;stroke:#252525;padding:8px;stroke-width:0" d="M 570.125, 550 
A 0 0 0 0 1, 570.125, 550 
L 570.125, 500.51562716494135 
A 0 0 0 0 1, 570.125, 500.51562716494135 
L 613.875, 500.51562716494135 
A 0 0 0 0 1, 613.875, 500.51562716494135 
L 613.875, 550 
A 0 0 0 0 1, 613.875, 550 
 z" index="4" role="presentation" shape-rendering="auto"></path><path style="fill:#252525;stroke:#252525;padding:8px;stroke-width:0" d="M 698.125, 550 
A 0 0 0 0 1, 698.125, 550 
L 698.125, 475.773440747412 
A 0 0 0 0 1, 698.125, 475.773440747412 
L 741.875, 475.773440747412 
A 0 0 0 0 1, 741.875, 475.773440747412 
L 741.875, 550 
A 0 0 0 0 1, 741.875, 550 
 z" index="5" role="presentation" shape-rendering="auto"></path></g><g role="presentation"><line vector-effect="non-scaling-stroke" style="stroke:#252525;fill:transparent;stroke-width:1;stroke-linecap:round;stroke-linejoin:round" role="presentation" shape-rendering="auto" x1="50" x2="750" y1="550" y2="550"></line><g role="presentation"><text direction="inherit" dx="0" x="80" y="572.97" id="chart-axis-1-tickLabels-0"><tspan x="80" dx="0" dy="0" text-anchor="middle" style="font-family:&#x27;Gill Sans&#x27;, &#x27;Seravek&#x27;, &#x27;Trebuchet MS&#x27;, sans-serif;font-size:14px;letter-spacing:normal;padding:10px;fill:#252525;stroke:transparent">Red</tspan></text></g><g role="presentation"><text direction="inherit" dx="0" x="208" y="572.97" id="chart-axis-1-tickLabels-1"><tspan x="208" dx="0" dy="0" text-anchor="middle" style="font-family:&#x27;Gill Sans&#x27;, &#x27;Seravek&#x27;, &#x27;Trebuchet MS&#x27;, sans-serif;font-size:14px;letter-spacing:normal;padding:10px;fill:#252525;stroke:transparent">Blue</tspan></text></g><g role="presentation"><text direction="inherit" dx="0" x="336" y="572.97" id="chart-axis-1-tickLabels-2"><tspan x="336" dx="0" dy="0" text-anchor="middle" style="font-family:&#x27;Gill Sans&#x27;, &#x27;Seravek&#x27;, &#x27;Trebuchet MS&#x27;, sans-serif;font-size:14px;letter-spacing:normal;padding:10px;fill:#252525;stroke:transparent">Yellow</tspan></text></g><g role="presentation"><text direction="inherit" dx="0" x="464" y="572.97" id="chart-axis-1-tickLabels-3"><tspan x="464" dx="0" dy="0" text-anchor="middle" style="font-family:&#x27;Gill Sans&#x27;, &#x27;Seravek&#x27;, &#x27;Trebuchet MS&#x27;, sans-serif;font-size:14px;letter-spacing:normal;padding:10px;fill:#252525;stroke:transparent">Green</tspan></text></g><g role="presentation"><text direction="inherit" dx="0" x="592" y="572.97" id="chart-axis-1-tickLabels-4"><tspan x="592" dx="0" dy="0" text-anchor="middle" style="font-family:&#x27;Gill Sans&#x27;, &#x27;Seravek&#x27;, &#x27;Trebuchet MS&#x27;, sans-serif;font-size:14px;letter-spacing:normal;padding:10px;fill:#252525;stroke:transparent">Purple</tspan></text></g><g role="presentation"><text direction="inherit" dx="0" x="720" y="572.97" id="chart-axis-1-tickLabels-5"><tspan x="720" dx="0" dy="0" text-anchor="middle" style="font-family:&#x27;Gill Sans&#x27;, &#x27;Seravek&#x27;, &#x27;Trebuchet MS&#x27;, sans-serif;font-size:14px;letter-spacing:normal;padding:10px;fill:#252525;stroke:transparent">Orange</tspan></text></g></g><g role="presentation"><line vector-effect="non-scaling-stroke" style="stroke:#252525;fill:transparent;stroke-width:1;stroke-linecap:round;stroke-linejoin:round" role="presentation" shape-rendering="auto" x1="50" x2="50" y1="50" y2="550"></line><g role="presentation"><text direction="inherit" dx="0" x="39" y="431.25906791235326" id="chart-axis-2-tickLabels-0"><tspan x="39" dx="0" dy="0" text-anchor="end" style="font-family:&#x27;Gill Sans&#x27;, &#x27;Seravek&#x27;, &#x27;Trebuchet MS&#x27;, sans-serif;font-size:14px;letter-spacing:normal;padding:10px;fill:#252525;stroke:transparent">5</tspan></text></g><g role="presentation"><text direction="inherit" dx="0" x="39" y="307.5481358247066" id="chart-axis-2-tickLabels-1"><tspan x="39" dx="0" dy="0" text-anchor="end" style="font-family:&#x27;Gill Sans&#x27;, &#x27;Seravek&#x27;, &#x27;Trebuchet MS&#x27;, sans-serif;font-size:14px;letter-spacing:normal;padding:10px;fill:#252525;stroke:transparent">10</tspan></text></g><g role="presentation"><text direction="inherit" dx="0" x="39" y="183.83720373705987" id="chart-axis-2-tickLabels-2"><tspan x="39" dx="0" dy="0" text-anchor="end" style="font-family:&#x27;Gill Sans&#x27;, &#x27;Seravek&#x27;, &#x27;Trebuchet MS&#x27;, sans-serif;font-size:14px;letter-spacing:normal;padding:10px;fill:#252525;stroke:transparent">15</tspan></text></g><g role="presentation"><text direction="inherit" dx="0" x="39" y="60.12627164941312" id="chart-axis-2-tickLabels-3"><tspan x="39" dx="0" dy="0" text-anchor="end" style="font-family:&#x27;Gill Sans&#x27;, &#x27;Seravek&#x27;, &#x27;Trebuchet MS&#x27;, sans-serif;font-size:14px;letter-spacing:normal;padding:10px;fill:#252525;stroke:transparent">20</tspan></text></g></g>
</svg>
 
 