<svg  viewBox="0 0 28 28" fill="none" xmlns="http://www.w3.org/2000/svg">
<path fill-rule="evenodd" clip-rule="evenodd" d="M6.125 7.43751C6.125 6.30993 7.03908 5.39584 8.16667 5.39584C9.29425 5.39584 10.2083 6.30993 10.2083 7.43751C10.2083 8.56509 9.29425 9.47918 8.16667 9.47918C7.03908 9.47918 6.125 8.56509 6.125 7.43751ZM8.16667 3.64584C6.07259 3.64584 4.375 5.34343 4.375 7.43751C4.375 8.49676 4.80935 9.45455 5.50966 10.1425C4.87863 10.475 4.30074 10.9254 3.80397 11.4774C2.6669 12.7408 2.04167 14.4364 2.04167 16.1875H3.79167C3.79167 14.8445 4.27268 13.5726 5.10474 12.6481C5.93406 11.7266 7.03788 11.2292 8.16667 11.2292C8.91734 11.2292 9.65696 11.4492 10.3122 11.8676C10.7522 11.4332 11.2687 11.076 11.8396 10.8179C11.5214 10.5569 11.181 10.3308 10.8237 10.1425C11.524 9.45455 11.9583 8.49676 11.9583 7.43751C11.9583 5.34343 10.2607 3.64584 8.16667 3.64584ZM17.7917 7.43751C17.7917 6.30993 18.7058 5.39584 19.8333 5.39584C20.9609 5.39584 21.875 6.30993 21.875 7.43751C21.875 8.56509 20.9609 9.47918 19.8333 9.47918C18.7058 9.47918 17.7917 8.56509 17.7917 7.43751ZM19.8333 3.64584C17.7393 3.64584 16.0417 5.34343 16.0417 7.43751C16.0417 8.49676 16.476 9.45455 17.1763 10.1425C16.819 10.3308 16.4786 10.5569 16.1604 10.8179C16.7313 11.076 17.2478 11.4332 17.6878 11.8676C18.343 11.4492 19.0827 11.2292 19.8333 11.2292C20.9621 11.2292 22.0659 11.7266 22.8953 12.6481C23.7273 13.5726 24.2083 14.8445 24.2083 16.1875H25.9583C25.9583 14.4364 25.3331 12.7408 24.196 11.4774C23.6993 10.9254 23.1214 10.475 22.4903 10.1425C23.1907 9.45455 23.625 8.49676 23.625 7.43751C23.625 5.34343 21.9274 3.64584 19.8333 3.64584ZM14 17.6458C14.0006 17.6458 14.0011 17.6458 14.0017 17.6458C15.1285 17.6449 16.0417 16.7312 16.0417 15.6042C16.0417 14.4766 15.1276 13.5625 14 13.5625C12.8724 13.5625 11.9583 14.4766 11.9583 15.6042C11.9583 16.7318 12.8724 17.6458 14 17.6458ZM16.657 18.3092C17.3573 17.6212 17.7917 16.6634 17.7917 15.6042C17.7917 13.5101 16.0941 11.8125 14 11.8125C11.9059 11.8125 10.2083 13.5101 10.2083 15.6042C10.2083 16.6634 10.6427 17.6212 11.343 18.3092C10.712 18.6417 10.1341 19.0921 9.63731 19.644C8.50023 20.9075 7.875 22.603 7.875 24.3542H9.625C9.625 23.0111 10.106 21.7392 10.9381 20.8147C11.7669 19.8938 12.87 19.3964 13.9981 19.3958C13.9987 19.3958 13.9994 19.3958 14 19.3958C15.1288 19.3958 16.2326 19.8933 17.0619 20.8147C17.894 21.7392 18.375 23.0111 18.375 24.3542H20.125C20.125 22.603 19.4998 20.9075 18.3627 19.644C17.8659 19.0921 17.288 18.6417 16.657 18.3092Z" fill="#0C8BFF"/>
</svg>
