<svg viewBox="0 0 28 28" fill="none" xmlns="http://www.w3.org/2000/svg">
<path fill-rule="evenodd" clip-rule="evenodd" d="M23.0416 3.0625H4.95831V21.1458H7.22085L3.42919 24.9375H5.90407L9.69573 21.1458H18.3043L22.0959 24.9375H24.5708L20.7791 21.1458H23.0416V3.0625ZM6.70831 12.3958V8.3125H13.125V12.3958H6.70831ZM14.875 12.3958V8.3125H21.2916V12.3958H14.875ZM6.70831 14.1458V19.3958H21.2916V14.1458H6.70831ZM21.2916 6.5625H6.70831V4.8125H21.2916V6.5625ZM9.3333 17.9375C9.97764 17.9375 10.5 17.4152 10.5 16.7708C10.5 16.1265 9.97764 15.6042 9.3333 15.6042C8.68897 15.6042 8.16664 16.1265 8.16664 16.7708C8.16664 17.4152 8.68897 17.9375 9.3333 17.9375ZM19.8333 16.7708C19.8333 17.4152 19.311 17.9375 18.6666 17.9375C18.0223 17.9375 17.5 17.4152 17.5 16.7708C17.5 16.1265 18.0223 15.6042 18.6666 15.6042C19.311 15.6042 19.8333 16.1265 19.8333 16.7708Z" fill="#0C8BFF"/>
</svg>
