<svg  viewBox="0 0 28 28" fill="none" xmlns="http://www.w3.org/2000/svg">
<path fill-rule="evenodd" clip-rule="evenodd" d="M9.62506 9.1875C9.62506 6.77125 11.5838 4.8125 14.0001 4.8125C16.4163 4.8125 18.3751 6.77125 18.3751 9.1875C18.3751 11.6037 16.4163 13.5625 14.0001 13.5625C11.5838 13.5625 9.62506 11.6037 9.62506 9.1875ZM14.0001 3.0625C10.6173 3.0625 7.87506 5.80475 7.87506 9.1875C7.87506 11.2772 8.92157 13.1225 10.5191 14.2279C9.07762 14.7963 7.75904 15.7147 6.66746 16.9275C4.74274 19.0661 3.675 21.9487 3.675 24.9375H5.425C5.425 22.3568 6.34852 19.8979 7.96823 18.0982C9.5852 16.3016 11.7573 15.3125 14 15.3125C16.2427 15.3125 18.4148 16.3016 20.0318 18.0982C21.6515 19.8979 22.575 22.3568 22.575 24.9375H24.325C24.325 21.9487 23.2573 19.0661 21.3325 16.9275C20.241 15.7147 18.9224 14.7963 17.481 14.2279C19.0785 13.1225 20.1251 11.2772 20.1251 9.1875C20.1251 5.80475 17.3828 3.0625 14.0001 3.0625Z" fill="#0C8BFF"/>
</svg>
