<svg viewBox="0 0 28 28" fill="none" xmlns="http://www.w3.org/2000/svg">
<path fill-rule="evenodd" clip-rule="evenodd" d="M24.2083 14C24.2083 12.0531 23.6633 10.2335 22.7175 8.68541L21.4759 10.0399C22.0171 11.0594 22.3559 12.2029 22.4385 13.4167H19.5417V15.1667H22.3785C21.8495 19.0013 18.7499 22.0154 14.875 22.4136V19.8333H13.125V22.4136C9.25009 22.0154 6.15052 19.0013 5.62147 15.1667H8.45834V13.4167H5.56147C5.84135 9.30778 9.05562 6.00459 13.125 5.58637V8.74999H14.875V5.58637C16.0879 5.71102 17.2247 6.09193 18.2306 6.67407L19.4368 5.35828C17.8626 4.36586 15.9984 3.79166 14 3.79166C8.3621 3.79166 3.79167 8.36208 3.79167 14C3.79167 19.6379 8.3621 24.2083 14 24.2083C19.6379 24.2083 24.2083 19.6379 24.2083 14ZM13.611 16.4616L13.6111 16.4615L13.6112 16.4616L23.403 5.7796L22.113 4.59709L22.1129 4.59716L22.1128 4.59709L13.6111 13.8717L10.4566 10.4304L10.4565 10.4305L10.4564 10.4304L9.16643 11.6129L13.611 16.4616Z" fill="#0C8BFF"/>
</svg>
