<svg viewBox="0 0 28 28" fill="none" xmlns="http://www.w3.org/2000/svg">
<path fill-rule="evenodd" clip-rule="evenodd" d="M7.30578 6.5625H19.9792V10.4592H2.47916V20.5625H17.6223C18.2094 22.0975 19.6961 23.1875 21.4375 23.1875C23.6927 23.1875 25.5208 21.3593 25.5208 19.1042C25.5208 16.849 23.6927 15.0208 21.4375 15.0208C19.2804 15.0208 17.514 16.6935 17.3644 18.8125H4.22916V12.2092H21.7292V4.8125H7.30578V6.5625ZM23.7708 19.1042C23.7708 20.3928 22.7262 21.4375 21.4375 21.4375C20.1488 21.4375 19.1042 20.3928 19.1042 19.1042C19.1042 17.8155 20.1488 16.7708 21.4375 16.7708C22.7262 16.7708 23.7708 17.8155 23.7708 19.1042Z" fill="#0C8BFF"/>
</svg>
